<?xml version="1.0" encoding="UTF-8" standalone="no"?>
<!-- Created with Inkscape (http://www.inkscape.org/) -->

<svg
   width="210mm"
   height="148mm"
   viewBox="0 0 210 148"
   version="1.1"
   id="svg5"
   inkscape:version="1.1.1 (3bf5ae0d25, 2021-09-20)"
   sodipodi:docname="DICE.svg"
   xmlns:inkscape="http://www.inkscape.org/namespaces/inkscape"
   xmlns:sodipodi="http://sodipodi.sourceforge.net/DTD/sodipodi-0.dtd"
   xmlns="http://www.w3.org/2000/svg"
   xmlns:svg="http://www.w3.org/2000/svg">
  <sodipodi:namedview
     id="namedview7"
     pagecolor="#505050"
     bordercolor="#eeeeee"
     borderopacity="1"
     inkscape:pageshadow="0"
     inkscape:pageopacity="0"
     inkscape:pagecheckerboard="0"
     inkscape:document-units="mm"
     showgrid="false"
     inkscape:zoom="0.45611672"
     inkscape:cx="361.74951"
     inkscape:cy="255.41708"
     inkscape:window-width="1366"
     inkscape:window-height="697"
     inkscape:window-x="278"
     inkscape:window-y="1072"
     inkscape:window-maximized="1"
     inkscape:current-layer="layer1" />
  <defs
     id="defs2" />
  <g
     inkscape:label="Camada 1"
     inkscape:groupmode="layer"
     id="layer1">
    <path
       style="fill:#ffffff;stroke-width:0.26565"
       d="m 69.936874,14.572936 c 0.971395,-0.278013 62.031406,-0.121525 63.709946,0.163274 0.58562,0.09937 0.95333,0.314316 1.32724,0.77586 1.0717,1.322908 31.16553,54.452091 31.39987,55.434936 0.38751,1.625309 -34.58793,61.456504 -36.15664,61.851814 -0.99639,0.25109 -62.190689,0.0926 -63.708918,-0.16503 -0.585623,-0.0994 -0.95333,-0.31431 -1.327234,-0.77586 C 64.2118,130.66137 34.050309,77.416174 33.780245,76.424751 33.355058,74.86388 68.3305,15.032677 69.936874,14.572936 Z M 41.954091,72.324965 c 0.294687,0.172265 6.391917,-0.683058 6.527939,-0.915747 0.199304,-0.340942 9.181034,-25.656369 9.2339,-26.026174 0.02231,-0.156192 -3.542047,5.826017 -7.920828,13.293775 -4.378771,7.467774 -7.907237,13.609432 -7.841011,13.648146 z M 64.051408,44.546561 c -4.444525,12.505814 -8.027343,22.764588 -7.961838,22.797281 0.222659,0.111057 50.42225,-31.591661 50.28584,-31.757214 -0.0746,-0.09054 -7.68001,-3.394058 -16.900905,-7.341149 -9.2209,-3.947084 -16.8341,-7.216754 -16.91821,-7.265922 -0.08412,-0.04917 -0.213919,0.117268 -0.28844,0.369877 -0.07456,0.252585 -3.77193,10.691311 -8.216447,23.197127 z M 46.442983,87.793796 c 2.757412,4.836911 6.259942,10.985036 7.783407,13.662504 1.523466,2.67747 2.793413,4.82796 2.822105,4.77888 0.02869,-0.0491 -1.697026,-5.92051 -3.834925,-13.047628 -2.137891,-7.127118 -4.076358,-13.614094 -4.307709,-14.415501 -0.420634,-1.457109 -0.420634,-1.457109 -4.082698,-1.037447 -2.809059,0.321912 -3.630802,0.518096 -3.527858,0.842242 0.07381,0.232417 2.390268,4.38005 5.147678,9.21695 z M 85.819431,20.565561 c 0.383164,0.140686 6.443676,2.7223 13.467837,5.736857 7.024152,3.014557 12.891412,5.442825 13.038352,5.396155 0.6667,-0.21177 12.98777,-11.296491 12.66628,-11.395271 -0.57339,-0.176178 -39.64697,-0.327742 -39.762316,-0.154237 -0.05866,0.08841 0.206688,0.275786 0.589843,0.416502 z m -3.696382,67.252455 c 21.983541,11.633177 25.633681,13.501834 25.739751,13.177284 0.53431,-1.635137 1.86323,-60.447075 1.36089,-60.226932 -1.18432,0.51901 -52.820128,33.089764 -52.769956,33.286155 0.02923,0.114412 11.580426,6.307996 25.669315,13.763493 z M 62.058092,102.98367 c 5.602229,18.72281 6.864509,22.64215 7.254212,22.52404 0.866624,-0.26267 35.120356,-19.16287 35.070996,-19.35115 -0.0677,-0.25817 -48.927925,-26.14733 -49.027145,-25.977596 -0.04426,0.07572 2.97161,10.337844 6.701937,22.804706 z M 134.70675,47.350929 c 9.4352,6.727943 17.78626,12.692274 18.55791,13.254077 0.9063,0.659828 1.36775,0.895381 1.30345,0.66535 -0.23345,-0.835172 -22.23047,-39.21844 -22.44483,-39.16468 -0.395,0.09906 -14.25087,12.253373 -14.41679,12.646346 -0.12807,0.303249 2.79743,2.471337 17.00026,12.598907 z m -20.18322,23.085767 c -0.47519,15.715392 -0.85603,28.983017 -0.84632,29.483626 0.0177,0.910198 0.0177,0.910198 22.47506,-13.743347 12.35157,-8.059447 22.44276,-14.709354 22.42487,-14.777576 -0.0179,-0.06821 -9.26605,-6.704832 -20.55148,-14.748029 -11.28544,-8.043205 -20.9819,-14.97911 -21.54768,-15.413115 -1.02744,-0.788149 -1.02873,-0.788251 -1.05958,-0.08205 -0.017,0.388892 -0.41969,13.565111 -0.89487,29.280491 z M 78.578597,127.17531 c 0.127132,-3.5e-4 9.000521,0.0394 19.718628,0.0884 10.718115,0.0489 20.792275,0.0878 22.387035,0.0863 2.89955,-0.003 2.89955,-0.003 -3.84889,-8.6774 -3.71164,-4.77105 -6.84145,-8.6941 -6.95514,-8.71785 -0.21764,-0.0455 -31.160668,16.76053 -31.396209,17.05215 -0.07513,0.093 -0.03257,0.16881 0.09458,0.16846 z M 121.731,115.73284 c 3.79212,4.87632 6.99399,8.99239 7.11528,9.1468 0.17553,0.2235 2.88008,-4.27477 13.26,-22.05437 13.03949,-22.335125 13.03949,-22.335125 -7.0157,-9.288188 -11.03034,7.175798 -20.09999,13.110548 -20.15476,13.188308 -0.0547,0.0778 3.00306,4.13112 6.79518,9.00745 z"
       id="path962" />
    <path
       style="fill:#ffffff;stroke:#ffffff;stroke-width:5.48105;stroke-linecap:round;stroke-linejoin:round;paint-order:markers stroke fill"
       d="m 276.34862,499.97255 -28.39794,-1.19671 -18.43717,-31.79011 C 219.37307,449.50117 192.50496,402.23849 169.8066,361.95753 l -41.26973,-73.23808 6.55884,-12.99299 c 15.24778,-30.20569 92.39162,-162.37732 119.58998,-204.895194 4.16814,-6.515844 10.04843,-12.786082 13.06732,-13.933862 5.95945,-2.26578 144.80132,-2.360227 204.71377,-0.139256 l 36.17496,1.341016 22.71102,39.463583 c 12.49108,21.704973 39.31389,68.961873 59.60626,105.015333 l 36.89523,65.55175 -7.75026,15.38997 C 597.56281,328.2806 501.75926,489.42429 493.10701,497.13152 l -5.5378,4.93295 -91.41131,-0.4476 c -50.27624,-0.24619 -104.19041,-0.98613 -119.80928,-1.64432 z M 463.6971,479.10237 c 0,-2.92792 -27.26633,-40.37342 -42.25568,-58.03072 l -6.08072,-7.16303 -34.47907,18.63286 c -18.96348,10.24808 -46.05165,24.90356 -60.19592,32.56771 -14.14426,7.66418 -25.73669,14.6748 -25.76095,15.57917 -0.0242,0.90438 37.9396,1.64432 84.36412,1.64432 72.89062,0 84.40822,-0.44079 84.40822,-3.23031 z M 323.02017,442.46668 c 30.94778,-17.1001 59.96029,-33.131 64.4722,-35.62422 4.51192,-2.49324 8.20141,-5.02645 8.19887,-5.62937 -0.002,-0.60291 -15.0399,-9.122 -33.41634,-18.93131 -67.71358,-36.1454 -150.67821,-79.72764 -151.77217,-79.72764 -2.50373,0 -0.44001,8.2392 15.43246,61.61267 29.90609,100.56351 33.80775,112.08037 37.49142,110.6668 1.82867,-0.7017 28.64577,-15.26684 59.59356,-32.36693 z m 201.10569,-29.19527 c 33.79934,-57.52804 49.85926,-88.13264 47.90627,-91.29264 -3.11085,-5.03343 -14.32387,0.0434 -48.31781,21.87633 -77.8484,49.99898 -90.57578,58.50715 -90.0665,60.20882 0.28883,0.96504 12.3177,16.99184 26.73085,35.61512 20.74406,26.80342 26.76208,33.29174 28.87509,31.13168 1.46815,-1.50082 17.16061,-27.39352 34.8721,-57.53931 z M 201.861,350.41239 c -19.27934,-65.19327 -16.25249,-59.63476 -31.46468,-57.78174 -6.89809,0.84024 -13.25885,2.20978 -14.135,3.0434 -0.87616,0.83363 7.8683,18.26145 19.43215,38.72851 31.88284,56.43003 38.36043,67.24851 39.55189,66.05704 0.60101,-0.60098 -5.42196,-23.12224 -13.38436,-50.04721 z m 210.41014,-95.54342 c 0.94296,-55.76971 1.07249,-101.39948 0.28782,-101.39948 -2.02595,0 -179.68484,111.55969 -197.29871,123.89239 -3.53743,2.4768 -0.3562,4.74486 28.50148,20.32006 52.49155,28.33102 150.3226,79.80512 157.45136,82.84353 l 6.57727,2.80334 1.38315,-13.53018 c 0.76073,-7.4416 2.15467,-59.15994 3.09763,-114.92966 z m 51.27795,105.38542 c 70.54727,-45.14371 136.20161,-89.11627 135.61553,-90.82964 -0.81436,-2.38079 -159.56497,-115.95526 -162.07838,-115.95526 -1.03985,0 -1.91269,2.71312 -1.93966,6.02916 -0.027,3.31603 -1.48752,50.42569 -3.24566,104.68811 -3.90736,120.59435 -3.87443,115.10212 -0.69004,115.10212 1.42588,0 15.97808,-8.56553 32.33821,-19.03449 z M 183.30946,270.3025 c 2.20575,-2.20575 34.85336,-93.84996 34.7948,-97.67153 -0.0582,-3.79894 -15.22306,21.07392 -56.36049,92.44052 l -5.56504,9.65442 12.66032,-1.30666 c 6.96318,-0.71866 13.47486,-2.1212 14.47041,-3.11675 z m 89.5721,-52.20023 c 99.37088,-62.44369 128.3332,-81.307 128.03474,-83.3897 -0.38286,-2.67159 -123.775,-56.177791 -126.84044,-55.001471 -1.27347,0.488675 -15.24923,37.755961 -31.05725,82.816191 -35.51688,101.23966 -32.93289,92.83176 -27.94112,90.91624 2.20817,-0.84735 28.22,-16.75092 57.80407,-35.34126 z m 310.42313,10.45765 c -1.6195,-4.30094 -32.26929,-58.74509 -61.94489,-110.0346 -10.77128,-18.616378 -20.57259,-34.177447 -21.7807,-34.580156 -3.049,-1.016336 -55.95531,45.479356 -55.00248,48.337876 0.86734,2.60198 135.3572,99.86895 138.2939,100.01815 1.03338,0.0525 1.22876,-1.63107 0.43417,-3.74127 z M 436.88892,111.37759 c 25.32599,-22.492999 35.48269,-33.347004 32.79954,-35.051348 -3.46008,-2.19784 -148.50795,-2.334224 -148.47123,-0.139603 0.0299,1.788665 97.95339,44.081781 102.51716,44.277131 1.53423,0.0657 7.45377,-4.02311 13.15453,-9.08618 z"
       id="path1013"
       transform="scale(0.26458333)" />
  </g>
</svg>
