<?xml version="1.0" encoding="UTF-8" standalone="no"?>
<!-- Created with Inkscape (http://www.inkscape.org/) -->

<svg
   width="210mm"
   height="148mm"
   viewBox="0 0 210 148"
   version="1.1"
   id="svg5"
   inkscape:version="1.1.1 (3bf5ae0d25, 2021-09-20)"
   sodipodi:docname="DICE.svg"
   xmlns:inkscape="http://www.inkscape.org/namespaces/inkscape"
   xmlns:sodipodi="http://sodipodi.sourceforge.net/DTD/sodipodi-0.dtd"
   xmlns="http://www.w3.org/2000/svg"
   xmlns:svg="http://www.w3.org/2000/svg">
  <sodipodi:namedview
     id="namedview7"
     pagecolor="#505050"
     bordercolor="#000000"
     borderopacity="1"
     inkscape:pageshadow="0"
     inkscape:pageopacity="0"
     inkscape:pagecheckerboard="0"
     inkscape:document-units="mm"
     showgrid="false"
     inkscape:zoom="0.45611672"
     inkscape:cx="362.84572"
     inkscape:cy="255.41708"
     inkscape:window-width="1366"
     inkscape:window-height="697"
     inkscape:window-x="1912"
     inkscape:window-y="555"
     inkscape:window-maximized="1"
     inkscape:current-layer="layer1" />
  <defs
     id="defs2" />
  <g
     inkscape:label="Camada 1"
     inkscape:groupmode="layer"
     id="layer1">
    <path
       style="fill:#000000;stroke-width:0.26565"
       d="m 74.860111,14.896664 c 0.971395,-0.278013 62.031409,-0.121525 63.709949,0.163274 0.58562,0.09937 0.95333,0.314316 1.32724,0.77586 1.0717,1.322908 31.16553,54.452091 31.39987,55.434936 0.38751,1.625309 -34.58793,61.456506 -36.15664,61.851816 -0.99639,0.25109 -62.190692,0.0926 -63.708921,-0.16503 -0.585623,-0.0994 -0.95333,-0.31431 -1.327234,-0.77586 C 69.135037,130.9851 38.973546,77.739902 38.703482,76.748479 38.278295,75.187608 73.253737,15.356405 74.860111,14.896664 Z M 46.877328,72.648693 c 0.294687,0.172265 6.391917,-0.683058 6.527939,-0.915747 0.199304,-0.340942 9.181034,-25.656369 9.2339,-26.026174 0.02231,-0.156192 -3.542047,5.826017 -7.920828,13.293775 -4.378771,7.467774 -7.907237,13.609432 -7.841011,13.648146 z M 68.974645,44.870289 c -4.444525,12.505814 -8.027343,22.764588 -7.961838,22.797281 0.222659,0.111057 50.422253,-31.591661 50.285843,-31.757214 -0.0746,-0.09054 -7.68001,-3.394058 -16.900908,-7.341149 -9.2209,-3.947084 -16.8341,-7.216754 -16.91821,-7.265922 -0.08412,-0.04917 -0.213919,0.117268 -0.28844,0.369877 -0.07456,0.252585 -3.77193,10.691311 -8.216447,23.197127 z M 51.36622,88.117524 c 2.757412,4.836911 6.259942,10.985036 7.783407,13.662506 1.523466,2.67747 2.793413,4.82796 2.822105,4.77888 0.02869,-0.0491 -1.697026,-5.92051 -3.834925,-13.04763 C 55.998916,86.384162 54.060449,79.897186 53.829098,79.095779 53.408464,77.63867 53.408464,77.63867 49.7464,78.058332 c -2.809059,0.321912 -3.630802,0.518096 -3.527858,0.842242 0.07381,0.232417 2.390268,4.38005 5.147678,9.21695 z M 90.742668,20.889289 c 0.383164,0.140686 6.443676,2.7223 13.467832,5.736857 7.02416,3.014557 12.89142,5.442825 13.03836,5.396155 0.6667,-0.21177 12.98777,-11.296491 12.66628,-11.395271 -0.57339,-0.176178 -39.646973,-0.327742 -39.762319,-0.154237 -0.05866,0.08841 0.206688,0.275786 0.589843,0.416502 z m -3.696382,67.252455 c 21.983544,11.633177 25.633684,13.501836 25.739754,13.177286 0.53431,-1.635139 1.86323,-60.447077 1.36089,-60.226934 -1.18432,0.51901 -52.820131,33.089764 -52.769959,33.286155 0.02923,0.114412 11.580426,6.307996 25.669315,13.763493 z M 66.981329,103.3074 c 5.602229,18.72281 6.864509,22.64215 7.254212,22.52404 0.866624,-0.26267 35.120359,-19.16287 35.070999,-19.35115 -0.0677,-0.25817 -48.927928,-26.147332 -49.027148,-25.977598 -0.04426,0.07572 2.97161,10.337844 6.701937,22.804708 z M 139.62999,47.674657 c 9.4352,6.727943 17.78626,12.692274 18.55791,13.254077 0.9063,0.659828 1.36775,0.895381 1.30345,0.66535 -0.23345,-0.835172 -22.23047,-39.21844 -22.44483,-39.16468 -0.395,0.09906 -14.25087,12.253373 -14.41679,12.646346 -0.12807,0.303249 2.79743,2.471337 17.00026,12.598907 z m -20.18322,23.085767 c -0.47519,15.715392 -0.85603,28.983017 -0.84632,29.483626 0.0177,0.9102 0.0177,0.9102 22.47506,-13.743347 12.35157,-8.059447 22.44276,-14.709354 22.42487,-14.777576 -0.0179,-0.06821 -9.26605,-6.704832 -20.55148,-14.748029 -11.28544,-8.043205 -20.9819,-14.97911 -21.54768,-15.413115 -1.02744,-0.788149 -1.02873,-0.788251 -1.05958,-0.08205 -0.017,0.388892 -0.41969,13.565111 -0.89487,29.280491 z M 83.501834,127.49904 c 0.127132,-3.5e-4 9.000521,0.0394 19.718626,0.0884 10.71812,0.0489 20.79228,0.0878 22.38704,0.0863 2.89955,-0.003 2.89955,-0.003 -3.84889,-8.6774 -3.71164,-4.77105 -6.84145,-8.6941 -6.95514,-8.71785 -0.21764,-0.0455 -31.160671,16.76053 -31.396212,17.05215 -0.07513,0.093 -0.03257,0.16881 0.09458,0.16846 z m 43.152406,-11.44247 c 3.79212,4.87632 6.99399,8.99239 7.11528,9.1468 0.17553,0.2235 2.88008,-4.27477 13.26,-22.05437 13.03949,-22.335127 13.03949,-22.335127 -7.0157,-9.28819 -11.03034,7.1758 -20.09999,13.11055 -20.15476,13.18831 -0.0547,0.0778 3.00306,4.13112 6.79518,9.00745 z"
       id="path962" />
  </g>
</svg>
